<svg xmlns="http://www.w3.org/2000/svg" viewBox="0 0 200 200">
  <!-- Fondo del círculo -->
  <circle cx="100" cy="100" r="100" fill="url(#grad1)"/>
  
  <!-- Gradiente para el fondo -->
  <defs>
    <linearGradient id="grad1" x1="0%" y1="0%" x2="100%" y2="100%">
      <stop offset="0%" style="stop-color:#6a11cb;stop-opacity:1" />
      <stop offset="100%" style="stop-color:#2575fc;stop-opacity:1" />
    </linearGradient>
  </defs>
  
  <!-- Casco del astronauta -->
  <circle cx="100" cy="90" r="50" fill="white" stroke="#e0e0e0" stroke-width="2"/>
  
  <!-- Visor del casco -->
  <ellipse cx="100" cy="85" rx="35" ry="30" fill="#e0f7ff" stroke="#cccccc" stroke-width="1"/>
  
  <!-- Reflejo en el visor -->
  <ellipse cx="90" cy="80" rx="10" ry="15" fill="rgba(255,255,255,0.7)"/>
  
  <!-- Cuerpo del traje -->
  <rect x="75" y="130" width="50" height="40" rx="10" fill="#333333"/>
  
  <!-- Detalles del traje -->
  <rect x="85" y="135" width="30" height="5" rx="2" fill="#ff6b6b"/>
  <circle cx="100" cy="150" r="3" fill="#4ecdc4"/>
  
  <!-- Brazos -->
  <rect x="65" y="135" width="15" height="30" rx="7" fill="#333333"/>
  <rect x="120" y="135" width="15" height="30" rx="7" fill="#333333"/>
  
  <!-- Detalles de los brazos -->
  <circle cx="72" cy="145" r="2" fill="#4ecdc4"/>
  <circle cx="128" cy="145" r="2" fill="#4ecdc4"/>
  
  <!-- Piernas -->
  <rect x="80" y="170" width="15" height="25" rx="7" fill="#333333"/>
  <rect x="105" y="170" width="15" height="25" rx="7" fill="#333333"/>
  
  <!-- Botas -->
  <rect x="75" y="195" width="20" height="5" rx="2" fill="#555555"/>
  <rect x="105" y="195" width="20" height="5" rx="2" fill="#555555"/>
  
  <!-- Estrellas de fondo -->
  <circle cx="40" cy="40" r="1.5" fill="white" opacity="0.8"/>
  <circle cx="160" cy="30" r="1" fill="white" opacity="0.8"/>
  <circle cx="180" cy="70" r="1.2" fill="white" opacity="0.8"/>
  <circle cx="20" cy="80" r="1" fill="white" opacity="0.8"/>
  <circle cx="60" cy="150" r="1.3" fill="white" opacity="0.8"/>
  <circle cx="170" cy="160" r="1.5" fill="white" opacity="0.8"/>
  <circle cx="140" cy="180" r="1" fill="white" opacity="0.8"/>
  <circle cx="30" cy="170" r="1.2" fill="white" opacity="0.8"/>
</svg>