<svg xmlns="http://www.w3.org/2000/svg" viewBox="0 0 200 200">
  <!-- Fondo con efecto de circuito -->
  <defs>
    <linearGradient id="bgGradient" x1="0%" y1="0%" x2="100%" y2="100%">
      <stop offset="0%" style="stop-color:#0f0f23;stop-opacity:1" />
      <stop offset="100%" style="stop-color:#1a1a2e;stop-opacity:1" />
    </linearGradient>
    
    <radialGradient id="faceGradient" cx="50%" cy="50%" r="50%">
      <stop offset="0%" style="stop-color:#2c3e50;stop-opacity:1" />
      <stop offset="100%" style="stop-color:#1a2530;stop-opacity:1" />
    </radialGradient>
    
    <filter id="glow">
      <feGaussianBlur stdDeviation="3" result="coloredBlur"/>
      <feMerge> 
        <feMergeNode in="coloredBlur"/>
        <feMergeNode in="SourceGraphic"/>
      </feMerge>
    </filter>
    
    <filter id="neonGlow" x="-50%" y="-50%" width="200%" height="200%">
      <feGaussianBlur in="SourceGraphic" stdDeviation="2" result="blur"/>
      <feComposite in="blur" in2="SourceGraphic" operator="over"/>
    </filter>
    
    <pattern id="circuit" x="0" y="0" width="20" height="20" patternUnits="userSpaceOnUse">
      <path d="M 0 10 L 20 10 M 10 0 L 10 20" stroke="#00ffff" stroke-width="0.5" opacity="0.3"/>
    </pattern>
  </defs>
  
  <!-- Fondo de circuito -->
  <rect width="200" height="200" fill="url(#bgGradient)"/>
  <rect width="200" height="200" fill="url(#circuit)" opacity="0.5"/>
  
  <!-- Halo de energía -->
  <circle cx="100" cy="100" r="95" fill="none" stroke="#00ffff" stroke-width="1" filter="url(#neonGlow)" opacity="0.6"/>
  <circle cx="100" cy="100" r="90" fill="none" stroke="#9c27b0" stroke-width="0.5" filter="url(#neonGlow)" opacity="0.4"/>
  
  <!-- Cara geométrica futurista -->
  <circle cx="100" cy="90" r="50" fill="url(#faceGradient)" stroke="#4a4a8a" stroke-width="1"/>
  
  <!-- Ojos digitales con efecto de datos -->
  <rect x="75" y="75" width="15" height="20" rx="3" fill="#00ffff" filter="url(#glow)"/>
  <rect x="110" y="75" width="15" height="20" rx="3" fill="#00ffff" filter="url(#glow)"/>
  
  <!-- Líneas de datos en ojos -->
  <g stroke="#ffffff" stroke-width="1">
    <line x1="77" y1="77" x2="86" y2="82"/>
    <line x1="77" y1="82" x2="86" y2="87"/>
    <line x1="77" y1="87" x2="86" y2="92"/>
    
    <line x1="112" y1="77" x2="121" y2="82"/>
    <line x1="112" y1="82" x2="121" y2="87"/>
    <line x1="112" y1="87" x2="121" y2="92"/>
  </g>
  
  <!-- Boca con forma de interfaz -->
  <rect x="85" y="115" width="30" height="8" rx="4" fill="none" stroke="#ff00ff" stroke-width="2" filter="url(#glow)"/>
  
  <!-- Línea de energía en la boca -->
  <line x1="87" y1="119" x2="113" y2="119" stroke="#ff00ff" stroke-width="1"/>
  
  <!-- Líneas de conexión en la cara -->
  <g stroke="#00ffff" stroke-width="0.5" opacity="0.7">
    <line x1="60" y1="60" x2="70" y2="70"/>
    <line x1="140" y1="60" x2="130" y2="70"/>
    <line x1="60" y1="120" x2="70" y2="110"/>
    <line x1="140" y1="120" x2="130" y2="110"/>
  </g>
  
  <!-- Puntos de datos alrededor -->
  <circle cx="40" cy="40" r="2" fill="#00ffff" filter="url(#glow)"/>
  <circle cx="160" cy="30" r="1.5" fill="#ff00ff" filter="url(#glow)"/>
  <circle cx="180" cy="80" r="1" fill="#00ff00" filter="url(#glow)"/>
  <circle cx="20" cy="100" r="1.5" fill="#ffff00" filter="url(#glow)"/>
  <circle cx="60" cy="160" r="2" fill="#ff9900" filter="url(#glow)"/>
  <circle cx="170" cy="170" r="1" fill="#00ffff" filter="url(#glow)"/>
  
  <!-- Línea de circuito central -->
  <path d="M100,10 
           L100,30 
           M100,50 
           L100,70 
           M100,110 
           L100,130 
           M100,150 
           L100,190" 
        stroke="#00ffff" stroke-width="1" stroke-dasharray="3,3" opacity="0.5"/>
  
  <!-- Mini circuito en la frente -->
  <rect x="85" y="50" width="30" height="15" rx="2" fill="none" stroke="#9c27b0" stroke-width="1"/>
  <line x1="87" y1="55" x2="113" y2="55" stroke="#9c27b0" stroke-width="0.5"/>
  <line x1="87" y1="60" x2="113" y2="60" stroke="#9c27b0" stroke-width="0.5"/>
</svg>