<svg xmlns="http://www.w3.org/2000/svg" viewBox="0 0 200 200">
  <!-- Fondo transparente -->
  <defs>
    <linearGradient id="processorGradient" x1="0%" y1="0%" x2="100%" y2="100%">
      <stop offset="0%" style="stop-color:#3b82f6;stop-opacity:0.7" />
      <stop offset="50%" style="stop-color:#60a5fa;stop-opacity:0.5" />
      <stop offset="100%" style="stop-color:#93c5fd;stop-opacity:0.3" />
    </linearGradient>
    
    <linearGradient id="coreGradient" x1="0%" y1="0%" x2="100%" y2="100%">
      <stop offset="0%" style="stop-color:#1e40af;stop-opacity:0.8" />
      <stop offset="100%" style="stop-color:#3b82f6;stop-opacity:0.6" />
    </linearGradient>
    
    <filter id="glow">
      <feGaussianBlur stdDeviation="3" result="coloredBlur"/>
      <feMerge> 
        <feMergeNode in="coloredBlur"/>
        <feMergeNode in="SourceGraphic"/>
      </feMerge>
    </filter>
    
    <filter id="innerGlow">
      <feGaussianBlur stdDeviation="2" result="blur"/>
      <feComposite in="blur" in2="SourceAlpha" operator="in" result="innerGlow"/>
      <feComposite in="SourceGraphic" in2="innerGlow" operator="over"/>
    </filter>
  </defs>
  
  <!-- Carcasa del procesador -->
  <rect x="30" y="30" width="140" height="140" rx="8" fill="none" stroke="url(#processorGradient)" stroke-width="3" filter="url(#glow)"/>
  
  <!-- Borde interior -->
  <rect x="40" y="40" width="120" height="120" rx="5" fill="none" stroke="url(#processorGradient)" stroke-width="1" opacity="0.7"/>
  
  <!-- Núcleo del procesador -->
  <rect x="60" y="60" width="80" height="80" rx="3" fill="url(#coreGradient)" filter="url(#innerGlow)" opacity="0.9"/>
  
  <!-- Líneas del núcleo (representando transistores) -->
  <g stroke="#bfdbfe" stroke-width="0.5" opacity="0.8">
    <!-- Líneas horizontales -->
    <line x1="65" y1="65" x2="135" y2="65"/>
    <line x1="65" y1="75" x2="135" y2="75"/>
    <line x1="65" y1="85" x2="135" y2="85"/>
    <line x1="65" y1="95" y2="95" x2="135"/>
    <line x1="65" y1="105" x2="135" y2="105"/>
    <line x1="65" y1="115" x2="135" y2="115"/>
    <line x1="65" y1="125" x2="135" y2="125"/>
    <line x1="65" y1="135" x2="135" y2="135"/>
    
    <!-- Líneas verticales -->
    <line x1="65" y1="65" x2="65" y2="135"/>
    <line x1="75" y1="65" x2="75" y2="135"/>
    <line x1="85" y1="65" x2="85" y2="135"/>
    <line x1="95" y1="65" x2="95" y2="135"/>
    <line x1="105" y1="65" x2="105" y2="135"/>
    <line x1="115" y1="65" x2="115" y2="135"/>
    <line x1="125" y1="65" x2="125" y2="135"/>
    <line x1="135" y1="65" x2="135" y2="135"/>
  </g>
  
  <!-- Pines de conexión -->
  <g fill="#f87171" opacity="0.9">
    <!-- Lado superior -->
    <circle cx="70" cy="25" r="2"/>
    <circle cx="90" cy="25" r="2"/>
    <circle cx="110" cy="25" r="2"/>
    <circle cx="130" cy="25" r="2"/>
    
    <!-- Lado inferior -->
    <circle cx="70" cy="175" r="2"/>
    <circle cx="90" cy="175" r="2"/>
    <circle cx="110" cy="175" r="2"/>
    <circle cx="130" cy="175" r="2"/>
    
    <!-- Lado izquierdo -->
    <circle cx="25" cy="70" r="2"/>
    <circle cx="25" cy="90" r="2"/>
    <circle cx="25" cy="110" r="2"/>
    <circle cx="25" cy="130" r="2"/>
    
    <!-- Lado derecho -->
    <circle cx="175" cy="70" r="2"/>
    <circle cx="175" cy="90" r="2"/>
    <circle cx="175" cy="110" r="2"/>
    <circle cx="175" cy="130" r="2"/>
  </g>
  
  <!-- Líneas de conexión -->
  <g stroke="#93c5fd" stroke-width="1" opacity="0.6">
    <line x1="70" y1="30" x2="70" y2="25"/>
    <line x1="90" y1="30" x2="90" y2="25"/>
    <line x1="110" y1="30" x2="110" y2="25"/>
    <line x1="130" y1="30" x2="130" y2="25"/>
    
    <line x1="70" y1="170" x2="70" y2="175"/>
    <line x1="90" y1="170" x2="90" y2="175"/>
    <line x1="110" y1="170" x2="110" y2="175"/>
    <line x1="130" y1="170" x2="130" y2="175"/>
    
    <line x1="30" y1="70" x2="25" y2="70"/>
    <line x1="30" y1="90" x2="25" y2="90"/>
    <line x1="30" y1="110" x2="25" y2="110"/>
    <line x1="30" y1="130" x2="25" y2="130"/>
    
    <line x1="170" y1="70" x2="175" y2="70"/>
    <line x1="170" y1="90" x2="175" y2="90"/>
    <line x1="170" y1="110" x2="175" y2="110"/>
    <line x1="170" y1="130" x2="175" y2="130"/>
  </g>
  
  <!-- Efecto de brillo en el núcleo -->
  <ellipse cx="100" cy="80" rx="20" ry="30" fill="white" opacity="0.2" transform="rotate(30 100 80)"/>
  
  <!-- Puntos de soldadura en las esquinas -->
  <circle cx="35" cy="35" r="1.5" fill="#fbbf24" opacity="0.8"/>
  <circle cx="165" cy="35" r="1.5" fill="#fbbf24" opacity="0.8"/>
  <circle cx="35" cy="165" r="1.5" fill="#fbbf24" opacity="0.8"/>
  <circle cx="165" cy="165" r="1.5" fill="#fbbf24" opacity="0.8"/>
</svg>